HIERARCHY
ROOT Hips
{
 OFFSET 0.000000 0.000000 0.000000
 CHANNELS 6 Xposition Yposition Zposition Yrotation Xrotation Zrotation
 JOINT Chest
 {
  OFFSET 0.000000 9.585900 0.002600
  CHANNELS 3 Yrotation Xrotation Zrotation
  JOINT Chest2
  {
   OFFSET 0.000000 9.601200 -0.005300
   CHANNELS 3 Yrotation Xrotation Zrotation
   JOINT Chest3
   {
    OFFSET 0.000000 9.561800 0.000000
    CHANNELS 3 Yrotation Xrotation Zrotation
    JOINT Chest4
    {
     OFFSET 0.000000 9.552100 0.000000
     CHANNELS 3 Yrotation Xrotation Zrotation
     JOINT Neck
     {
      OFFSET 0.000000 14.453000 0.000000
      CHANNELS 3 Yrotation Xrotation Zrotation
      JOINT Head
      {
       OFFSET 0.000000 8.936500 -0.011300
       CHANNELS 3 Yrotation Xrotation Zrotation
       End Site
       {
        OFFSET 0.000000 17.073600 -0.006000
       }
      }
     }
     JOINT RightCollar
     {
      OFFSET -2.921100 9.558500 0.000000
      CHANNELS 3 Yrotation Xrotation Zrotation
      JOINT RightShoulder
      {
       OFFSET -13.519700 0.000000 0.000000
       CHANNELS 3 Yrotation Xrotation Zrotation
       JOINT RightElbow
       {
        OFFSET 0.000000 -29.696600 0.000000
        CHANNELS 3 Yrotation Xrotation Zrotation
        JOINT RightWrist
        {
         OFFSET 0.000000 -24.004700 0.000000
         CHANNELS 3 Yrotation Xrotation Zrotation
         End Site
         {
          OFFSET 0.000000 -17.728500 0.000000
         }
        }
       }
      }
     }
     JOINT LeftCollar
     {
      OFFSET 2.921100 9.558500 0.000000
      CHANNELS 3 Yrotation Xrotation Zrotation
      JOINT LeftShoulder
      {
       OFFSET 13.519700 0.000000 0.000000
       CHANNELS 3 Yrotation Xrotation Zrotation
       JOINT LeftElbow
       {
        OFFSET 0.000000 -29.696600 0.000000
        CHANNELS 3 Yrotation Xrotation Zrotation
        JOINT LeftWrist
        {
         OFFSET 0.000000 -24.004700 0.000000
         CHANNELS 3 Yrotation Xrotation Zrotation
         End Site
         {
          OFFSET 0.000000 -17.728500 0.000000
         }
        }
       }
      }
     }
    }
   }
  }
 }
 JOINT RightHip
 {
  OFFSET -7.771700 -0.012900 -0.001300
  CHANNELS 3 Yrotation Xrotation Zrotation
  JOINT RightKnee
  {
   OFFSET 0.000000 -40.869800 0.001200
   CHANNELS 3 Yrotation Xrotation Zrotation
   JOINT RightAnkle
   {
    OFFSET 0.000000 -39.717900 0.002100
    CHANNELS 3 Yrotation Xrotation Zrotation
    JOINT RightToe
    {
     OFFSET 0.000000 -4.965400 11.033500
     CHANNELS 3 Yrotation Xrotation Zrotation
     End Site
     {
      OFFSET 0.000000 -1.423100 5.872300
     }
    }
   }
  }
 }
 JOINT LeftHip
 {
  OFFSET 7.771700 -0.012900 -0.001300
  CHANNELS 3 Yrotation Xrotation Zrotation
  JOINT LeftKnee
  {
   OFFSET 0.000000 -40.869800 0.001200
   CHANNELS 3 Yrotation Xrotation Zrotation
   JOINT LeftAnkle
   {
    OFFSET 0.000000 -39.717900 0.002100
    CHANNELS 3 Yrotation Xrotation Zrotation
    JOINT LeftToe
    {
     OFFSET 0.000000 -4.965400 11.033500
     CHANNELS 3 Yrotation Xrotation Zrotation
     End Site
     {
      OFFSET 0.000000 -1.423100 5.872300
     }
    }
   }
  }
 }
}
MOTION
Frames: 11
Frame Time: 0.008333
-228.899418 56.677025 139.448171 178.189320 -45.981022 0.424655 0.402766 30.370120 2.564611 -0.187213 5.927337 0.488619 -0.270511 9.234342 0.755486 -0.457808 24.069418 1.959133 0.479324 11.494892 -3.667770 2.487636 -14.330862 -7.232182 3.898758 3.659946 -2.472722 21.468754 -31.683583 -18.842343 2.306027 -74.042807 25.760760 6.170200 -4.417357 -36.660957 -10.872667 -0.196849 -4.919480 -1.309930 -26.534591 1.057014 27.553386 -42.169170 -58.770761 22.470490 2.354582 19.390316 6.127816 -30.455540 -6.200744 -9.463150 64.082264 -13.562683 9.229320 28.045096 5.511002 -1.067249 -15.395523 6.523321 -7.048269 -28.333714 -2.694072 31.701962 65.436563 33.410755 -14.263000 6.996078 -6.679415 0.218698 0.687122 0.091729
-228.908255 56.676245 139.449080 178.190054 -45.986054 0.439568 0.387562 30.370567 2.548980 -0.185691 5.924225 0.491171 -0.272740 9.239097 0.752490 -0.454172 24.068797 1.956629 0.484369 11.501996 -3.670430 2.497269 -14.314386 -7.242736 3.894967 3.653630 -2.471652 21.482542 -31.688543 -18.847554 2.322623 -74.031442 25.743725 6.170487 -4.421297 -36.667997 -10.879394 -0.202140 -4.918847 -1.305567 -26.535256 1.056694 27.553083 -42.161257 -58.768208 22.468890 2.354663 19.389586 6.161443 -30.451194 -6.243723 -9.459481 64.082578 -13.533559 9.204125 28.056663 5.499584 -1.048569 -15.391771 6.523639 -7.044438 -28.328441 -2.714855 31.707810 65.434076 33.415572 -14.263882 6.999804 -6.682021 0.221030 0.682726 0.094233
-228.917022 56.675284 139.449646 178.199690 -45.992138 0.450908 0.372780 30.371936 2.531996 -0.186313 5.921938 0.492767 -0.270812 9.234064 0.756564 -0.460959 24.078911 1.949399 0.491962 11.505799 -3.670569 2.513161 -14.292191 -7.256567 3.892498 3.646135 -2.473311 21.479094 -31.692085 -18.839284 2.360474 -74.029852 25.713629 6.165899 -4.423332 -36.670795 -10.884594 -0.206827 -4.916070 -1.307164 -26.539391 1.063515 27.556166 -42.154570 -58.763570 22.454543 2.361967 19.378033 6.191656 -30.446404 -6.290200 -9.466088 64.089017 -13.517093 9.205936 28.050780 5.496911 -1.040518 -15.363315 6.526247 -7.047075 -28.321119 -2.738301 31.717424 65.429142 33.422587 -14.266556 6.996580 -6.684509 0.221138 0.685056 0.095948
-228.923372 56.673903 139.450212 178.216430 -45.997190 0.446292 0.357232 30.372242 2.527590 -0.186642 5.919694 0.491110 -0.270928 9.233140 0.757090 -0.462109 24.081089 1.955325 0.496548 11.513057 -3.679294 2.516306 -14.283194 -7.261233 3.892856 3.645430 -2.482146 21.470280 -31.698003 -18.831873 2.384336 -74.024438 25.697412 6.162841 -4.424387 -36.672610 -10.887271 -0.208362 -4.922059 -1.304646 -26.534969 1.061628 27.559126 -42.162994 -58.763970 22.434792 2.365545 19.374277 6.205179 -30.442534 -6.320310 -9.468060 64.094410 -13.497798 9.216472 28.039214 5.484998 -1.020314 -15.309658 6.533026 -7.061785 -28.318571 -2.746621 31.733728 65.429784 33.436253 -14.273135 6.998343 -6.688135 0.228309 0.680996 0.096834
-228.927620 56.672387 139.450605 178.223923 -46.003233 0.439567 0.351865 30.364729 2.531803 -0.187554 5.925701 0.489807 -0.270211 9.236241 0.755937 -0.458904 24.066024 1.960883 0.500104 11.534190 -3.684294 2.520255 -14.272790 -7.265448 3.880448 3.657553 -2.481263 21.474021 -31.699289 -18.831320 2.401967 -74.021013 25.686452 6.158710 -4.422782 -36.672160 -10.890494 -0.195489 -4.926621 -1.312909 -26.531771 1.070761 27.577579 -42.168386 -58.767734 22.439399 2.375654 19.369961 6.206184 -30.437096 -6.326104 -9.446722 64.092190 -13.476652 9.220343 28.035508 5.488483 -1.009863 -15.280732 6.535035 -7.068449 -28.313519 -2.745782 31.759060 65.430077 33.463876 -14.284733 6.995157 -6.696187 0.234574 0.678521 0.101231
-228.932755 56.670507 139.451140 178.226086 -46.007942 0.445628 0.343243 30.363409 2.524166 -0.187329 5.926465 0.489430 -0.269617 9.237217 0.754160 -0.458259 24.061864 1.963701 0.508977 11.545991 -3.686766 2.531861 -14.253332 -7.274441 3.879052 3.660614 -2.480442 21.470274 -31.700584 -18.827391 2.445891 -74.022606 25.643643 6.150046 -4.421606 -36.668179 -10.888644 -0.191898 -4.927122 -1.317913 -26.538229 1.076922 27.581998 -42.173612 -58.769949 22.437681 2.377792 19.373843 6.238456 -30.433485 -6.361328 -9.432024 64.096233 -13.438261 9.234070 28.031781 5.494192 -0.985992 -15.262061 6.529956 -7.065804 -28.311515 -2.753305 31.774776 65.436844 33.475757 -14.281805 6.991841 -6.691757 0.230361 0.676485 0.101423
-228.936794 56.668700 139.451588 178.224099 -46.014857 0.451527 0.340122 30.365247 2.520433 -0.187093 5.925901 0.489416 -0.270669 9.229018 0.757743 -0.458090 24.068366 1.959506 0.515761 11.557565 -3.687830 2.544204 -14.231729 -7.281061 3.868059 3.653301 -2.474715 21.477746 -31.691653 -18.820128 2.487458 -74.020017 25.606293 6.153598 -4.432558 -36.661624 -10.888377 -0.187785 -4.927506 -1.319103 -26.537188 1.081392 27.586590 -42.173740 -58.775617 22.435131 2.372948 19.371118 6.287614 -30.426013 -6.403875 -9.418221 64.100189 -13.385661 9.260185 28.026039 5.501736 -1.000608 -15.250861 6.535766 -7.067078 -28.305115 -2.749752 31.790641 65.445044 33.479411 -14.285383 6.978795 -6.687721 0.228974 0.681382 0.103845
-228.940776 56.666339 139.452723 178.225004 -46.018303 0.457788 0.334104 30.363725 2.513600 -0.186977 5.924096 0.489698 -0.270213 9.229738 0.757159 -0.457086 24.067775 1.959365 0.522425 11.569196 -3.688383 2.556727 -14.211151 -7.283410 3.863519 3.654196 -2.472192 21.479756 -31.691385 -18.812573 2.522586 -74.017650 25.572184 6.152103 -4.432866 -36.658033 -10.885943 -0.186176 -4.927098 -1.321134 -26.534037 1.087083 27.587991 -42.169414 -58.781206 22.427149 2.367203 19.366739 6.319800 -30.422046 -6.434639 -9.399897 64.100731 -13.346412 9.266370 28.022227 5.504790 -0.989153 -15.222935 6.536573 -7.064775 -28.302846 -2.754833 31.796956 65.448274 33.482654 -14.288476 6.977154 -6.684893 0.227243 0.679488 0.102773
-228.944872 56.663723 139.454358 178.232381 -46.020902 0.462289 0.320188 30.360497 2.502808 -0.185535 5.925530 0.488489 -0.270552 9.227558 0.758576 -0.456447 24.069398 1.957404 0.527397 11.578038 -3.688898 2.572073 -14.187730 -7.286862 3.861707 3.654363 -2.469196 21.481542 -31.689783 -18.810154 2.539404 -74.015264 25.547873 6.151142 -4.434759 -36.645221 -10.882365 -0.186716 -4.925076 -1.320368 -26.532445 1.089317 27.586204 -42.161572 -58.785088 22.427097 2.360476 19.364435 6.335331 -30.420510 -6.456811 -9.392288 64.101031 -13.328997 9.237533 28.021049 5.505190 -0.951660 -15.174310 6.523277 -7.065003 -28.301853 -2.762668 31.797006 65.451747 33.479525 -14.289228 6.975328 -6.681227 0.226905 0.679308 0.101576
-228.947814 56.661300 139.456155 178.239146 -46.026578 0.462016 0.310504 30.362982 2.497647 -0.184220 5.927115 0.487368 -0.271808 9.222581 0.762390 -0.456723 24.074226 1.952903 0.529059 11.580996 -3.689099 2.590556 -14.161517 -7.291552 3.861499 3.651588 -2.466436 21.485751 -31.689804 -18.810547 2.578402 -74.015882 25.504407 6.137541 -4.437534 -36.635858 -10.881933 -0.187982 -4.922356 -1.314687 -26.534181 1.089550 27.584608 -42.153549 -58.788502 22.421822 2.354789 19.370538 6.337655 -30.415582 -6.466395 -9.375222 64.099202 -13.312620 9.219758 28.013453 5.505213 -0.978153 -15.135792 6.531699 -7.066838 -28.298170 -2.762654 31.789387 65.458282 33.469033 -14.290874 6.975992 -6.679647 0.229169 0.676479 0.102237
-228.951554 56.658400 139.458794 178.237104 -46.029533 0.473868 0.302512 30.362892 2.486153 -0.186225 5.923461 0.489999 -0.269005 9.225366 0.760096 -0.454340 24.070221 1.958679 0.535526 11.594836 -3.691673 2.603107 -14.135483 -7.298584 3.858437 3.654466 -2.470562 21.491190 -31.688719 -18.812186 2.577762 -74.011731 25.500936 6.127402 -4.428567 -36.621372 -10.884576 -0.183660 -4.929284 -1.309642 -26.536226 1.090059 27.583554 -42.147843 -58.794071 22.422279 2.350123 19.374945 6.361461 -30.415441 -6.486780 -9.375052 64.096659 -13.307680 9.186471 28.026673 5.520341 -0.983682 -15.112324 6.521372 -7.062962 -28.297562 -2.765223 31.779562 65.464209 33.453471 -14.297932 6.978845 -6.683887 0.231889 0.671763 0.107546
